<mxfile host="Electron" modified="2024-05-28T19:32:11.928Z" agent="Mozilla/5.0 (Windows NT 10.0; Win64; x64) AppleWebKit/537.36 (KHTML, like Gecko) draw.io/24.2.5 Chrome/120.0.6099.109 Electron/28.1.0 Safari/537.36" etag="rBgOcgsRPFeyhespKMnr" version="24.2.5" type="device">
  <diagram name="Страница — 1" id="IaIiqB7NT-9Ca0OZgut1">
    <mxGraphModel dx="775" dy="478" grid="1" gridSize="10" guides="1" tooltips="1" connect="1" arrows="1" fold="1" page="1" pageScale="1" pageWidth="827" pageHeight="1169" math="0" shadow="0">
      <root>
        <mxCell id="0" />
        <mxCell id="1" parent="0" />
        <mxCell id="T7R9kQGfX07B7LdkQ6xD-3" value="" style="edgeStyle=orthogonalEdgeStyle;rounded=0;orthogonalLoop=1;jettySize=auto;html=1;" parent="1" source="T7R9kQGfX07B7LdkQ6xD-1" target="T7R9kQGfX07B7LdkQ6xD-2" edge="1">
          <mxGeometry relative="1" as="geometry" />
        </mxCell>
        <mxCell id="T7R9kQGfX07B7LdkQ6xD-1" value="СТАРТ" style="ellipse;whiteSpace=wrap;html=1;" parent="1" vertex="1">
          <mxGeometry x="353" y="30" width="120" height="80" as="geometry" />
        </mxCell>
        <mxCell id="T7R9kQGfX07B7LdkQ6xD-29" value="" style="edgeStyle=orthogonalEdgeStyle;rounded=0;orthogonalLoop=1;jettySize=auto;html=1;" parent="1" source="T7R9kQGfX07B7LdkQ6xD-2" target="T7R9kQGfX07B7LdkQ6xD-28" edge="1">
          <mxGeometry relative="1" as="geometry" />
        </mxCell>
        <mxCell id="T7R9kQGfX07B7LdkQ6xD-2" value="Генерация матрицы смежности графа (пер myG)" style="rounded=0;whiteSpace=wrap;html=1;" parent="1" vertex="1">
          <mxGeometry x="353" y="160" width="120" height="60" as="geometry" />
        </mxCell>
        <mxCell id="T7R9kQGfX07B7LdkQ6xD-8" value="" style="edgeStyle=orthogonalEdgeStyle;rounded=0;orthogonalLoop=1;jettySize=auto;html=1;" parent="1" source="T7R9kQGfX07B7LdkQ6xD-5" target="T7R9kQGfX07B7LdkQ6xD-7" edge="1">
          <mxGeometry relative="1" as="geometry" />
        </mxCell>
        <mxCell id="T7R9kQGfX07B7LdkQ6xD-5" value="Замена всех 0-ых элементов в матрице смежности на inf (бесконечность)" style="whiteSpace=wrap;html=1;rounded=0;" parent="1" vertex="1">
          <mxGeometry x="340" y="420" width="145" height="80" as="geometry" />
        </mxCell>
        <mxCell id="T7R9kQGfX07B7LdkQ6xD-10" value="" style="edgeStyle=orthogonalEdgeStyle;rounded=0;orthogonalLoop=1;jettySize=auto;html=1;" parent="1" source="T7R9kQGfX07B7LdkQ6xD-7" target="T7R9kQGfX07B7LdkQ6xD-9" edge="1">
          <mxGeometry relative="1" as="geometry" />
        </mxCell>
        <mxCell id="T7R9kQGfX07B7LdkQ6xD-7" value="Инициализация счетчика k = 0" style="rounded=0;whiteSpace=wrap;html=1;" parent="1" vertex="1">
          <mxGeometry x="352.5" y="560" width="120" height="60" as="geometry" />
        </mxCell>
        <mxCell id="T7R9kQGfX07B7LdkQ6xD-20" style="edgeStyle=orthogonalEdgeStyle;rounded=0;orthogonalLoop=1;jettySize=auto;html=1;entryX=0.5;entryY=0;entryDx=0;entryDy=0;" parent="1" source="T7R9kQGfX07B7LdkQ6xD-9" target="T7R9kQGfX07B7LdkQ6xD-12" edge="1">
          <mxGeometry relative="1" as="geometry" />
        </mxCell>
        <mxCell id="T7R9kQGfX07B7LdkQ6xD-21" value="Да" style="edgeLabel;html=1;align=center;verticalAlign=middle;resizable=0;points=[];" parent="T7R9kQGfX07B7LdkQ6xD-20" vertex="1" connectable="0">
          <mxGeometry x="-0.8704" y="-1" relative="1" as="geometry">
            <mxPoint x="-7" y="-16" as="offset" />
          </mxGeometry>
        </mxCell>
        <mxCell id="T7R9kQGfX07B7LdkQ6xD-55" value="" style="edgeStyle=orthogonalEdgeStyle;rounded=0;orthogonalLoop=1;jettySize=auto;html=1;" parent="1" source="T7R9kQGfX07B7LdkQ6xD-9" target="T7R9kQGfX07B7LdkQ6xD-54" edge="1">
          <mxGeometry relative="1" as="geometry">
            <Array as="points">
              <mxPoint x="320" y="720" />
              <mxPoint x="320" y="720" />
            </Array>
          </mxGeometry>
        </mxCell>
        <mxCell id="8oGEzToL8N5a5DQJlp9U-2" value="Нет" style="edgeLabel;html=1;align=center;verticalAlign=middle;resizable=0;points=[];" vertex="1" connectable="0" parent="T7R9kQGfX07B7LdkQ6xD-55">
          <mxGeometry x="-0.3854" y="-2" relative="1" as="geometry">
            <mxPoint x="21" y="-8" as="offset" />
          </mxGeometry>
        </mxCell>
        <mxCell id="T7R9kQGfX07B7LdkQ6xD-9" value="k &amp;lt; размера&amp;nbsp;&lt;div&gt;матрицы&lt;/div&gt;" style="rhombus;whiteSpace=wrap;html=1;" parent="1" vertex="1">
          <mxGeometry x="348.5" y="680" width="130" height="80" as="geometry" />
        </mxCell>
        <mxCell id="T7R9kQGfX07B7LdkQ6xD-11" value="" style="edgeStyle=orthogonalEdgeStyle;rounded=0;orthogonalLoop=1;jettySize=auto;html=1;" parent="1" source="T7R9kQGfX07B7LdkQ6xD-12" target="T7R9kQGfX07B7LdkQ6xD-13" edge="1">
          <mxGeometry relative="1" as="geometry" />
        </mxCell>
        <mxCell id="T7R9kQGfX07B7LdkQ6xD-12" value="Инициализация счетчика i = 0" style="rounded=0;whiteSpace=wrap;html=1;" parent="1" vertex="1">
          <mxGeometry x="563.5" y="790" width="120" height="60" as="geometry" />
        </mxCell>
        <mxCell id="T7R9kQGfX07B7LdkQ6xD-17" value="" style="edgeStyle=orthogonalEdgeStyle;rounded=0;orthogonalLoop=1;jettySize=auto;html=1;" parent="1" source="T7R9kQGfX07B7LdkQ6xD-13" target="T7R9kQGfX07B7LdkQ6xD-15" edge="1">
          <mxGeometry relative="1" as="geometry" />
        </mxCell>
        <mxCell id="T7R9kQGfX07B7LdkQ6xD-26" value="Да" style="edgeLabel;html=1;align=center;verticalAlign=middle;resizable=0;points=[];" parent="T7R9kQGfX07B7LdkQ6xD-17" vertex="1" connectable="0">
          <mxGeometry x="-0.5467" y="-1" relative="1" as="geometry">
            <mxPoint x="-30" y="-11" as="offset" />
          </mxGeometry>
        </mxCell>
        <mxCell id="T7R9kQGfX07B7LdkQ6xD-49" style="edgeStyle=orthogonalEdgeStyle;rounded=0;orthogonalLoop=1;jettySize=auto;html=1;entryX=1;entryY=0.5;entryDx=0;entryDy=0;" parent="1" source="T7R9kQGfX07B7LdkQ6xD-13" target="T7R9kQGfX07B7LdkQ6xD-46" edge="1">
          <mxGeometry relative="1" as="geometry" />
        </mxCell>
        <mxCell id="T7R9kQGfX07B7LdkQ6xD-50" value="Нет" style="edgeLabel;html=1;align=center;verticalAlign=middle;resizable=0;points=[];" parent="T7R9kQGfX07B7LdkQ6xD-49" vertex="1" connectable="0">
          <mxGeometry x="-0.4505" y="-1" relative="1" as="geometry">
            <mxPoint x="15" y="-9" as="offset" />
          </mxGeometry>
        </mxCell>
        <mxCell id="T7R9kQGfX07B7LdkQ6xD-13" value="i &amp;lt; размера&amp;nbsp;&lt;div&gt;матрицы&lt;/div&gt;" style="rhombus;whiteSpace=wrap;html=1;" parent="1" vertex="1">
          <mxGeometry x="558.5" y="920" width="130" height="80" as="geometry" />
        </mxCell>
        <mxCell id="T7R9kQGfX07B7LdkQ6xD-14" value="" style="edgeStyle=orthogonalEdgeStyle;rounded=0;orthogonalLoop=1;jettySize=auto;html=1;" parent="1" source="T7R9kQGfX07B7LdkQ6xD-15" target="T7R9kQGfX07B7LdkQ6xD-16" edge="1">
          <mxGeometry relative="1" as="geometry" />
        </mxCell>
        <mxCell id="T7R9kQGfX07B7LdkQ6xD-27" value="Да" style="edgeLabel;html=1;align=center;verticalAlign=middle;resizable=0;points=[];" parent="T7R9kQGfX07B7LdkQ6xD-14" vertex="1" connectable="0">
          <mxGeometry x="-0.65" y="1" relative="1" as="geometry">
            <mxPoint x="14" as="offset" />
          </mxGeometry>
        </mxCell>
        <mxCell id="T7R9kQGfX07B7LdkQ6xD-15" value="Инициализация счетчика j = 0" style="rounded=0;whiteSpace=wrap;html=1;" parent="1" vertex="1">
          <mxGeometry x="737.75" y="1050" width="120" height="60" as="geometry" />
        </mxCell>
        <mxCell id="T7R9kQGfX07B7LdkQ6xD-34" value="" style="edgeStyle=orthogonalEdgeStyle;rounded=0;orthogonalLoop=1;jettySize=auto;html=1;" parent="1" source="T7R9kQGfX07B7LdkQ6xD-16" target="T7R9kQGfX07B7LdkQ6xD-33" edge="1">
          <mxGeometry relative="1" as="geometry" />
        </mxCell>
        <mxCell id="T7R9kQGfX07B7LdkQ6xD-51" value="Да" style="edgeLabel;html=1;align=center;verticalAlign=middle;resizable=0;points=[];" parent="T7R9kQGfX07B7LdkQ6xD-34" vertex="1" connectable="0">
          <mxGeometry x="-0.6611" y="1" relative="1" as="geometry">
            <mxPoint x="11" as="offset" />
          </mxGeometry>
        </mxCell>
        <mxCell id="T7R9kQGfX07B7LdkQ6xD-44" style="edgeStyle=orthogonalEdgeStyle;rounded=0;orthogonalLoop=1;jettySize=auto;html=1;entryX=0.5;entryY=1;entryDx=0;entryDy=0;" parent="1" source="T7R9kQGfX07B7LdkQ6xD-16" target="T7R9kQGfX07B7LdkQ6xD-43" edge="1">
          <mxGeometry relative="1" as="geometry" />
        </mxCell>
        <mxCell id="T7R9kQGfX07B7LdkQ6xD-52" value="Нет" style="edgeLabel;html=1;align=center;verticalAlign=middle;resizable=0;points=[];" parent="T7R9kQGfX07B7LdkQ6xD-44" vertex="1" connectable="0">
          <mxGeometry x="-0.7274" y="1" relative="1" as="geometry">
            <mxPoint x="15" y="-11" as="offset" />
          </mxGeometry>
        </mxCell>
        <mxCell id="T7R9kQGfX07B7LdkQ6xD-16" value="j &amp;lt; размера&amp;nbsp;&lt;div&gt;матрицы&lt;/div&gt;" style="rhombus;whiteSpace=wrap;html=1;" parent="1" vertex="1">
          <mxGeometry x="732.75" y="1170" width="130" height="80" as="geometry" />
        </mxCell>
        <mxCell id="T7R9kQGfX07B7LdkQ6xD-30" style="edgeStyle=orthogonalEdgeStyle;rounded=0;orthogonalLoop=1;jettySize=auto;html=1;entryX=0.5;entryY=0;entryDx=0;entryDy=0;" parent="1" source="T7R9kQGfX07B7LdkQ6xD-28" target="T7R9kQGfX07B7LdkQ6xD-5" edge="1">
          <mxGeometry relative="1" as="geometry" />
        </mxCell>
        <mxCell id="T7R9kQGfX07B7LdkQ6xD-28" value="Инициализаия промежуточной матрицы смежности графа исходной (пер minP)" style="whiteSpace=wrap;html=1;rounded=0;" parent="1" vertex="1">
          <mxGeometry x="323" y="280" width="180" height="80" as="geometry" />
        </mxCell>
        <mxCell id="T7R9kQGfX07B7LdkQ6xD-36" value="" style="edgeStyle=orthogonalEdgeStyle;rounded=0;orthogonalLoop=1;jettySize=auto;html=1;" parent="1" source="T7R9kQGfX07B7LdkQ6xD-33" target="T7R9kQGfX07B7LdkQ6xD-35" edge="1">
          <mxGeometry relative="1" as="geometry" />
        </mxCell>
        <mxCell id="8oGEzToL8N5a5DQJlp9U-1" value="Да" style="edgeLabel;html=1;align=center;verticalAlign=middle;resizable=0;points=[];" vertex="1" connectable="0" parent="T7R9kQGfX07B7LdkQ6xD-36">
          <mxGeometry x="-0.5954" relative="1" as="geometry">
            <mxPoint x="12" as="offset" />
          </mxGeometry>
        </mxCell>
        <mxCell id="T7R9kQGfX07B7LdkQ6xD-33" value="minP[i][k] + minP[k][j] &amp;lt; minP[i][j]" style="rhombus;whiteSpace=wrap;html=1;" parent="1" vertex="1">
          <mxGeometry x="688.5" y="1330" width="218.5" height="80" as="geometry" />
        </mxCell>
        <mxCell id="T7R9kQGfX07B7LdkQ6xD-38" value="" style="edgeStyle=orthogonalEdgeStyle;rounded=0;orthogonalLoop=1;jettySize=auto;html=1;" parent="1" source="T7R9kQGfX07B7LdkQ6xD-35" target="T7R9kQGfX07B7LdkQ6xD-37" edge="1">
          <mxGeometry relative="1" as="geometry" />
        </mxCell>
        <mxCell id="T7R9kQGfX07B7LdkQ6xD-35" value="myG[i][j] = minP[i][k] + minP[k][j]" style="whiteSpace=wrap;html=1;" parent="1" vertex="1">
          <mxGeometry x="699.5" y="1480" width="196.5" height="60" as="geometry" />
        </mxCell>
        <mxCell id="T7R9kQGfX07B7LdkQ6xD-40" style="edgeStyle=orthogonalEdgeStyle;rounded=0;orthogonalLoop=1;jettySize=auto;html=1;" parent="1" source="T7R9kQGfX07B7LdkQ6xD-37" target="T7R9kQGfX07B7LdkQ6xD-16" edge="1">
          <mxGeometry relative="1" as="geometry">
            <Array as="points">
              <mxPoint x="984.25" y="1640" />
              <mxPoint x="984.25" y="1210" />
            </Array>
          </mxGeometry>
        </mxCell>
        <mxCell id="T7R9kQGfX07B7LdkQ6xD-37" value="Инкрементация j" style="rounded=0;whiteSpace=wrap;html=1;" parent="1" vertex="1">
          <mxGeometry x="737.75" y="1610" width="120" height="60" as="geometry" />
        </mxCell>
        <mxCell id="T7R9kQGfX07B7LdkQ6xD-45" style="edgeStyle=orthogonalEdgeStyle;rounded=0;orthogonalLoop=1;jettySize=auto;html=1;entryX=0.5;entryY=1;entryDx=0;entryDy=0;" parent="1" source="T7R9kQGfX07B7LdkQ6xD-43" target="T7R9kQGfX07B7LdkQ6xD-13" edge="1">
          <mxGeometry relative="1" as="geometry" />
        </mxCell>
        <mxCell id="T7R9kQGfX07B7LdkQ6xD-43" value="Инкрементация i" style="rounded=0;whiteSpace=wrap;html=1;" parent="1" vertex="1">
          <mxGeometry x="563.5" y="1050" width="120" height="60" as="geometry" />
        </mxCell>
        <mxCell id="T7R9kQGfX07B7LdkQ6xD-48" style="edgeStyle=orthogonalEdgeStyle;rounded=0;orthogonalLoop=1;jettySize=auto;html=1;entryX=0.5;entryY=1;entryDx=0;entryDy=0;" parent="1" source="T7R9kQGfX07B7LdkQ6xD-46" target="T7R9kQGfX07B7LdkQ6xD-9" edge="1">
          <mxGeometry relative="1" as="geometry" />
        </mxCell>
        <mxCell id="T7R9kQGfX07B7LdkQ6xD-46" value="Инкрементация k" style="rounded=0;whiteSpace=wrap;html=1;" parent="1" vertex="1">
          <mxGeometry x="354" y="930" width="120" height="60" as="geometry" />
        </mxCell>
        <mxCell id="T7R9kQGfX07B7LdkQ6xD-57" style="edgeStyle=orthogonalEdgeStyle;rounded=0;orthogonalLoop=1;jettySize=auto;html=1;" parent="1" source="T7R9kQGfX07B7LdkQ6xD-54" target="T7R9kQGfX07B7LdkQ6xD-56" edge="1">
          <mxGeometry relative="1" as="geometry" />
        </mxCell>
        <mxCell id="T7R9kQGfX07B7LdkQ6xD-54" value="Вывод матрицы&amp;nbsp;&lt;div&gt;myG&lt;/div&gt;" style="shape=parallelogram;perimeter=parallelogramPerimeter;whiteSpace=wrap;html=1;fixedSize=1;" parent="1" vertex="1">
          <mxGeometry x="120" y="690" width="143.5" height="60" as="geometry" />
        </mxCell>
        <mxCell id="T7R9kQGfX07B7LdkQ6xD-56" value="КОНЕЦ" style="ellipse;whiteSpace=wrap;html=1;" parent="1" vertex="1">
          <mxGeometry x="131.75" y="920" width="120" height="80" as="geometry" />
        </mxCell>
        <mxCell id="T7R9kQGfX07B7LdkQ6xD-58" value="k - индекс вершины через который должен пройти путь" style="whiteSpace=wrap;html=1;shape=mxgraph.basic.cloud_callout;flipH=0;verticalAlign=middle;horizontal=1;spacingBottom=20;" parent="1" vertex="1">
          <mxGeometry x="507.75" y="560" width="230" height="140" as="geometry" />
        </mxCell>
        <mxCell id="T7R9kQGfX07B7LdkQ6xD-59" value="Путь через вершину k меньше&amp;nbsp;&lt;div&gt;чем на прямую&lt;/div&gt;" style="whiteSpace=wrap;html=1;shape=mxgraph.basic.cloud_callout;flipH=1;verticalAlign=middle;horizontal=1;spacingBottom=20;" parent="1" vertex="1">
          <mxGeometry x="450" y="1230" width="230" height="140" as="geometry" />
        </mxCell>
        <mxCell id="T7R9kQGfX07B7LdkQ6xD-60" value="Сохраняем этот путь через k как основной" style="whiteSpace=wrap;html=1;shape=mxgraph.basic.cloud_callout;flipH=1;verticalAlign=middle;horizontal=1;spacingBottom=20;" parent="1" vertex="1">
          <mxGeometry x="453.5" y="1380" width="230" height="140" as="geometry" />
        </mxCell>
        <mxCell id="eY24e_9tUdWVGjgPyAdK-1" value="Алгоритм Флойда-Уоршелла" style="text;html=1;align=center;verticalAlign=middle;whiteSpace=wrap;rounded=0;fontSize=64;fontStyle=1" parent="1" vertex="1">
          <mxGeometry x="810" y="70" width="800" height="160" as="geometry" />
        </mxCell>
      </root>
    </mxGraphModel>
  </diagram>
</mxfile>
